<?xml version="1.0" standalone="no"?>
<!DOCTYPE svg PUBLIC "-//W3C//DTD SVG 20010904//EN"
 "http://www.w3.org/TR/2001/REC-SVG-20010904/DTD/svg10.dtd">
<svg version="1.0" xmlns="http://www.w3.org/2000/svg"
 width="512.000000pt" height="512.000000pt" viewBox="0 0 512.000000 512.000000"
 preserveAspectRatio="xMidYMid meet">

<g transform="translate(0.000000,512.000000) scale(0.100000,-0.100000)"
fill="#ff0000ff" stroke="none">
<path d="M0 2560 l0 -2560 2560 0 2560 0 0 2560 0 2560 -2560 0 -2560 0 0
-2560z m2345 1502 c-6 -5 -42 -32 -82 -61 -141 -102 -217 -207 -253 -345 -24
-96 -44 -378 -37 -526 7 -139 46 -301 105 -438 41 -94 87 -172 103 -172 5 0
35 14 68 30 69 35 196 70 256 70 74 0 197 -38 324 -101 112 -55 132 -70 215
-153 77 -77 99 -106 138 -186 55 -111 101 -257 124 -390 13 -73 15 -128 10
-235 -3 -81 -1 -167 5 -205 10 -65 56 -163 120 -258 16 -24 29 -46 29 -49 0
-11 -831 4 -842 15 -7 7 3 35 32 87 103 189 150 341 150 490 0 155 -37 249
-138 357 -83 87 -185 141 -271 142 -171 1 -431 -266 -471 -486 -18 -99 21
-265 112 -473 22 -49 42 -96 45 -102 4 -10 -86 -13 -430 -13 l-436 0 41 67
c104 171 207 499 253 803 27 181 40 744 27 1123 -14 375 -20 431 -68 604 -41
149 -98 276 -160 356 l-45 57 542 0 c299 0 539 -4 534 -8z m657 -7 c440 -58
735 -252 859 -568 27 -69 33 -96 33 -167 1 -72 -3 -94 -26 -143 -75 -159 -294
-277 -635 -342 -111 -21 -396 -45 -538 -45 l-120 0 -43 63 c-134 197 -162 507
-71 788 27 85 106 240 174 345 l55 84 99 0 c55 0 151 -7 213 -15z"/>
<path d="M3024 3631 c-51 -70 -112 -192 -125 -251 -13 -61 -5 -126 19 -158 38
-50 310 -49 411 1 30 15 51 35 64 61 18 34 19 45 9 92 -33 160 -143 270 -293
293 l-51 8 -34 -46z"/>
</g>
</svg>
